#!OML:ASF F:\VICON\USERDATA\INSTALL\rory3\rory3.ASF
:FULLY-SPECIFIED
:DEGREES
539
root 5.19168 16.9748 2.0452 7.2508 -14.6329 -7.56758
lowerback 21.0547 0.070383 4.1589
upperback 5.63317 1.01064 1.67893
thorax -5.58409 0.432601 -0.816103
lowerneck -15.9413 -0.598831 -1.07083
upperneck 39.3838 0.370656 -2.77524
head 17.025 -0.473788 -1.00989
rclavicle 9.0447e-015 -1.61016e-014
rhumerus -37.4319 -7.91549 -18.0454
rradius 35.1447
rwrist 0.584016
rhand -17.9631 -42.5677
rfingers 7.12502
rthumb 8.30595 -72.3844
lclavicle 9.0447e-015 -1.61016e-014
lhumerus -38.1488 10.0794 11.6054
lradius 27.1026
lwrist 15.7239
lhand -29.1331 -18.1803
lfingers 7.12502
lthumb -2.48027 11.785
rfemur -101.739 -0.180971 26.9633
rtibia 96.6666
rfoot 48.5711 0.646219
rtoes -3.55667
lfemur -27.8959 4.86918 -23.2315
ltibia 41.5743
lfoot -17.83 10.7031
ltoes 14.9183
540
root 5.19193 16.9756 2.04198 7.30208 -14.7297 -7.78093
lowerback 21.0895 0.0605066 4.27954
upperback 5.64228 1.02533 1.70314
thorax -5.58938 0.438415 -0.862425
lowerneck -15.9345 -0.580967 -1.0001
upperneck 39.2895 0.387355 -2.81746
head 16.9719 -0.462135 -1.03627
rclavicle -5.19822e-014 1.70955e-014
rhumerus -37.2845 -7.86179 -18.1223
rradius 34.7695
rwrist 0.594954
rhand -18.7704 -41.8751
rfingers 7.12502
rthumb 7.52676 -71.7212
lclavicle -5.19822e-014 1.70955e-014
lhumerus -38.3077 9.50432 11.8521
lradius 26.2039
lwrist 14.5678
lhand -26.1718 -35.4035
lfingers 7.12502
lthumb 0.379807 -5.4241
rfemur -101.661 -0.00155632 27.1775
rtibia 96.6082
rfoot 48.5904 0.780359
rtoes -3.62335
lfemur -27.9344 5.07746 -23.0148
ltibia 41.6627
lfoot -17.9755 10.6043
ltoes 14.8881
541
root 5.19376 16.9742 2.03728 7.30341 -14.7763 -7.82176
lowerback 21.1245 0.0413653 4.3063
upperback 5.65264 1.00463 1.6655
thorax -5.59584 0.428029 -0.913137
lowerneck -15.8065 -0.6043 -1.14569
upperneck 39.1682 0.295456 -2.56927
head 16.8703 -0.485625 -0.911814
rclavicle -5.40694e-014 4.1546e-014
rhumerus -37.1863 -8.0492 -18.1312
rradius 34.6549
rwrist 0.904767
rhand -19.188 -41.8582
rfingers 7.12502
rthumb 7.12368 -71.7183
lclavicle -5.40694e-014 4.1546e-014
lhumerus -38.2528 10.1743 11.1979
lradius 27.4744
lwrist 16.328
lhand -23.1408 -24.9408
lfingers 7.12502
lthumb 3.30708 5.01329
rfemur -101.643 0.0710214 27.1858
rtibia 96.6221
rfoot 48.5505 0.396669
rtoes -2.89313
lfemur -27.9919 5.2016 -22.974
ltibia 41.72
lfoot -18.0452 10.4933
ltoes 14.9279
542
root 5.19541 16.9724 2.03655 7.28732 -14.8019 -7.75496
lowerback 21.1272 0.0350239 4.25662
upperback 5.64696 0.983552 1.6226
thorax -5.60461 0.418033 -0.925828
lowerneck -15.4897 -0.607426 -1.22687
upperneck 38.835 0.267817 -2.47489
head 16.61 -0.491603 -0.850107
rclavicle 3.29983e-014 -2.22639e-014
rhumerus -37.178 -8.13034 -18.1103
rradius 34.8168
rwrist 1.2052
rhand -18.8261 -42.2368
rfingers 7.12502
rthumb 7.47298 -72.0848
lclavicle 3.29983e-014 -2.22639e-014
lhumerus -38.3769 9.63076 11.4845
lradius 26.9053
lwrist 15.6528
lhand -24.9089 -29.1363
lfingers 7.12502
lthumb 1.59955 0.837424
rfemur -101.676 0.0751157 27.0709
rtibia 96.6884
rfoot 48.4957 -0.392249
rtoes -1.60512
lfemur -28.022 5.25548 -23.051
ltibia 41.7398
lfoot -18.0791 10.4315
ltoes 15.1661
543
root 5.19485 16.9705 2.03555 7.29088 -14.7886 -7.68027
lowerback 21.1731 0.0237971 4.15163
upperback 5.59852 0.951327 1.61015
thorax -5.6845 0.401376 -0.872078
lowerneck -15.2812 -0.556482 -1.08485
upperneck 38.5831 0.37552 -2.69466
head 16.4265 -0.454085 -0.946013
rclavicle 3.15074e-014 -1.78906e-015
rhumerus -37.1096 -8.19023 -18.061
rradius 34.7181
rwrist 1.40244
rhand -18.4909 -42.2588
rfingers 7.12502
rthumb 7.7965 -72.095
lclavicle 3.15074e-014 -1.78906e-015
lhumerus -38.4675 9.2874 11.6198
lradius 26.6811
lwrist 15.2828
lhand -25.5366 -30.2494
lfingers 7.12502
lthumb 0.993319 -0.271987
rfemur -101.743 0.0554934 26.9906
rtibia 96.7434
rfoot 48.4482 -0.716726
rtoes -1.52372
lfemur -28.0287 5.32341 -23.1457
ltibia 41.7453
lfoot -18.0589 10.412
ltoes 14.7139
544
root 5.19506 16.9686 2.03327 7.29124 -14.8249 -7.64714
lowerback 21.206 0.0166356 4.07733
upperback 5.62198 0.924969 1.58275
thorax -5.67832 0.389337 -0.852857
lowerneck -15.3894 -0.517851 -0.9781
upperneck 38.5468 0.435493 -2.78421
head 16.4356 -0.426743 -0.994027
rclavicle -1.8487e-014 1.98785e-014
rhumerus -36.9474 -8.28664 -18.078
rradius 34.5255
rwrist 1.56186
rhand -18.2945 -42.4696
rfingers 7.12502
rthumb 7.98612 -72.2987
lclavicle -1.8487e-014 1.98785e-014
lhumerus -38.5394 9.30435 11.5269
lradius 26.6742
lwrist 15.1677
lhand -25.0156 -30.2904
lfingers 7.12502
lthumb 1.49649 -0.315926
rfemur -101.768 0.0977678 26.9814
rtibia 96.7272
rfoot 48.4734 -0.833228
rtoes -1.82241
lfemur -28.0335 5.43856 -23.1963
ltibia 41.7625
lfoot -18.0703 10.4313
ltoes 14.1278
545
root 5.19581 16.9676 2.03142 7.30467 -14.8685 -7.67156
lowerback 21.1571 0.00744503 4.07298
upperback 5.68314 0.905259 1.56827
thorax -5.5872 0.381829 -0.860378
lowerneck -15.5366 -0.499196 -0.996994
upperneck 38.5796 0.44498 -2.71152
head 16.4893 -0.416804 -0.958928
rclavicle -4.85035e-014 -4.37326e-015
rhumerus -36.7744 -8.36194 -18.098
rradius 34.436
rwrist 1.68538
rhand -18.1162 -42.9386
rfingers 7.12502
rthumb 8.15818 -72.7611
lclavicle -4.85035e-014 -4.37326e-015
lhumerus -38.5607 9.3866 11.4421
lradius 26.6401
lwrist 15.1384
lhand -24.7827 -30.0923
lfingers 7.12502
lthumb 1.7214 -0.119509
rfemur -101.769 0.154962 27.0428
rtibia 96.6952
rfoot 48.4129 -0.841829
rtoes -1.967
lfemur -28.0544 5.5205 -23.1745
ltibia 41.7723
lfoot -18.1095 10.415
ltoes 14.2163
546
root 5.19369 16.9646 2.02881 7.28796 -14.7984 -7.65343
lowerback 21.2109 -0.0307251 3.99591
upperback 5.62697 0.847411 1.59496
thorax -5.6805 0.352317 -0.773816
lowerneck -15.3778 -0.454276 -1.01247
upperneck 38.5785 0.522611 -2.73768
head 16.4508 -0.390912 -0.952663
rclavicle -5.18828e-014 8.34896e-015
rhumerus -36.6387 -8.3523 -18.0044
rradius 34.3326
rwrist 1.80683
rhand -18.257 -43.1051
rfingers 7.12502
rthumb 8.02225 -72.9329
lclavicle -5.18828e-014 8.34896e-015
lhumerus -38.623 9.31942 11.3814
lradius 26.644
lwrist 15.1168
lhand -26.9581 -29.7376
lfingers 7.12502
lthumb -0.379593 0.24182
rfemur -101.807 0.110243 27.0919
rtibia 96.7302
rfoot 48.3013 -0.423426
rtoes -2.97564
lfemur -28.0494 5.56085 -23.1837
ltibia 41.7516
lfoot -18.1305 10.3031
ltoes 14.3512
547
root 5.19357 16.9649 2.02941 7.20768 -14.7292 -7.52937
lowerback 21.2683 -0.0620396 3.865
upperback 5.59033 0.783207 1.57674
thorax -5.75483 0.32086 -0.703176
lowerneck -15.1741 -0.443931 -1.07723
upperneck 38.4896 0.52888 -2.67953
head 16.3529 -0.388415 -0.910925
rclavicle -5.56597e-014 1.03368e-014
rhumerus -36.6088 -8.23406 -17.9603
rradius 34.3873
rwrist 1.75322
rhand -18.7893 -43.3037
rfingers 7.12502
rthumb 7.50848 -73.1504
lclavicle -5.56597e-014 1.03368e-014
lhumerus -38.6143 9.47901 11.1755
lradius 26.7853
lwrist 15.2713
lhand -23.6035 -25.4229
lfingers 7.12502
lthumb 2.86029 4.53767
rfemur -101.828 -0.0125528 27.0407
rtibia 96.8164
rfoot 48.2956 0.0450078
rtoes -3.49895
lfemur -27.9546 5.58606 -23.3178
ltibia 41.6895
lfoot -18.1351 10.2359
ltoes 14.1978
